# xmcd
#
# Track frame offsets: 
#        150
#        13660
#        25514
#        36989
#        49822
#        62747
#        73676
#        88273
#        102319
#        114750
#        127805
#        140717
#        152035
#        165717
#        177595
#        190256
#        200210
#        211449
#        223255
#        234055
#        245324
#        257525
#        271267
#        281298
#        295027
#        307175
#        318223
#        331094
#        343686
#
# Disc length: 4745 seconds
#
# Revision: 0
# Processed by: cddbd v1.5.2PL0 Copyright (c) Steve Scherf et al.
# Submitted via: ExactAudioCopy v0.99pb5
#
DISCID=ac12871d
DTITLE=Champion Jack Dupree - Blues From The Gutter and Natural and Soulfu
DTITLE=l Blues [CD2]
DYEAR=2010
DGENRE=Blues
TTITLE0=Mean Old Frisco
TTITLE1=Bad Whiskey And Wild Women
TTITLE2=Bus Station Blues
TTITLE3=Stumbling Block Blues
TTITLE4=Highway Blues
TTITLE5=Shake Baby Shake
TTITLE6=Number Nine Blues
TTITLE7=Drunk Again
TTITLE8=Shim Sham Shimmy
TTITLE9=Failing Health Blues
TTITLE10=Stumbling Block
TTITLE11=Mail Order Woman
TTITLE12=Silent Partner
TTITLE13=Big Leg Emma's
TTITLE14=Overhead
TTITLE15=Me And My Mule
TTITLE16=So Sorry, So Sorry
TTITLE17=Sharp Harp
TTITLE18=Lonely Road Blues
TTITLE19=When I Got Married
TTITLE20=Dirty Woman
TTITLE21=Old Time Rock And Roll
TTITLE22=Rocky Mountain
TTITLE23=Just Like A Woman
TTITLE24=Shake Baby Shake
TTITLE25=Lollipop Baby
TTITLE26=When I Got Married (Alternative Take)
TTITLE27=Old Time Rock and Roll (Alternative Take)
TTITLE28=Shake Baby Shake (Alternative Take)
EXTD=
EXTT0=
EXTT1=
EXTT2=
EXTT3=
EXTT4=
EXTT5=
EXTT6=
EXTT7=
EXTT8=
EXTT9=
EXTT10=
EXTT11=
EXTT12=
EXTT13=
EXTT14=
EXTT15=
EXTT16=
EXTT17=
EXTT18=
EXTT19=
EXTT20=
EXTT21=
EXTT22=
EXTT23=
EXTT24=
EXTT25=
EXTT26=
EXTT27=
EXTT28=
PLAYORDER=
